<svg id="hover" xmlns="http://www.w3.org/2000/svg" viewBox="0 0 28 66"><title>feed</title><path d="M0,38V66H28V38H0ZM9.14,60.3755a2.393,2.393,0,0,1-1.7577.7238,2.4815,2.4815,0,1,1,0-4.963A2.4858,2.4858,0,0,1,9.14,60.3755Zm7.1213,0.4524a0.762,0.762,0,0,1-.6074.2714H13.9089a0.8072,0.8072,0,0,1-.8142-0.75A8.0386,8.0386,0,0,0,10.71,55.29a8.0384,8.0384,0,0,0-5.06-2.3846,0.8072,0.8072,0,0,1-.75-0.8142V50.3462a0.762,0.762,0,0,1,.2714-0.6075,0.7532,0.7532,0,0,1,.5557-0.22H5.7924a11.59,11.59,0,0,1,3.9548,1.04,11.4282,11.4282,0,0,1,3.3474,2.3458A11.4285,11.4285,0,0,1,15.44,56.2527a11.5908,11.5908,0,0,1,1.04,3.9548A0.7824,0.7824,0,0,1,16.2611,60.8279Zm6.6043,0.0129a0.7641,0.7641,0,0,1-.5945.2585H20.4227a0.8073,0.8073,0,0,1-.5751-0.2262,0.7731,0.7731,0,0,1-.252-0.5493,14.4487,14.4487,0,0,0-1.3054-5.28,14.8543,14.8543,0,0,0-2.992-4.3427,14.8537,14.8537,0,0,0-4.3425-2.992,14.6386,14.6386,0,0,0-5.28-1.3183,0.7731,0.7731,0,0,1-.5493-0.252,0.7914,0.7914,0,0,1-.2262-0.5623V43.7288a0.7642,0.7642,0,0,1,.2585-0.5945,0.7736,0.7736,0,0,1,.5687-0.2327H5.7666a17.9335,17.9335,0,0,1,6.4815,1.551,18.1172,18.1172,0,0,1,5.4993,3.8,18.1172,18.1172,0,0,1,3.8,5.4993,17.934,17.934,0,0,1,1.5509,6.4816A0.7471,0.7471,0,0,1,22.8654,60.8408Z" fill="#fe9900"/><path d="M0,0V28H28V0H0ZM9.14,22.3755a2.393,2.393,0,0,1-1.7577.7238,2.4815,2.4815,0,1,1,0-4.963A2.4858,2.4858,0,0,1,9.14,22.3755Zm7.1213,0.4524a0.762,0.762,0,0,1-.6074.2714H13.9089a0.8072,0.8072,0,0,1-.8142-0.75A8.0386,8.0386,0,0,0,10.71,17.29a8.0384,8.0384,0,0,0-5.06-2.3846,0.8072,0.8072,0,0,1-.75-0.8142V12.3462a0.762,0.762,0,0,1,.2714-0.6075,0.7532,0.7532,0,0,1,.5557-0.22H5.7924a11.59,11.59,0,0,1,3.9548,1.04,11.4282,11.4282,0,0,1,3.3474,2.3458A11.4285,11.4285,0,0,1,15.44,18.2527a11.5908,11.5908,0,0,1,1.04,3.9548A0.7824,0.7824,0,0,1,16.2611,22.8279Zm6.6043,0.0129a0.7641,0.7641,0,0,1-.5945.2585H20.4227a0.8073,0.8073,0,0,1-.5751-0.2262,0.7731,0.7731,0,0,1-.252-0.5493,14.4487,14.4487,0,0,0-1.3054-5.28,14.8543,14.8543,0,0,0-2.992-4.3427A14.8537,14.8537,0,0,0,10.9557,9.71a14.6386,14.6386,0,0,0-5.28-1.3183,0.7731,0.7731,0,0,1-.5493-0.252A0.7914,0.7914,0,0,1,4.9006,7.577V5.7288a0.7642,0.7642,0,0,1,.2585-0.5945,0.7736,0.7736,0,0,1,.5687-0.2327H5.7666a17.9335,17.9335,0,0,1,6.4815,1.551,18.1172,18.1172,0,0,1,5.4993,3.8,18.1172,18.1172,0,0,1,3.8,5.4993,17.934,17.934,0,0,1,1.5509,6.4816A0.7471,0.7471,0,0,1,22.8654,22.8408Z" fill="#ccc"/></svg>