<svg id="hover" xmlns="http://www.w3.org/2000/svg" viewBox="0 0 28 66"><title>gh</title><path d="M9.06,60.6589q-0.2917,0-.2917.2005,0,0.237.31,0.2005,0.2917,0,.2917-0.2005Q9.37,60.6224,9.06,60.6589Z" fill="#667f8e"/><path d="M10.099,60.513q-0.2917.0547-.2552,0.2734t0.3281,0.1458q0.2917-.0729.2552-0.2552Q10.3906,60.4766,10.099,60.513Z" fill="#667f8e"/><path d="M7.638,60.6042q-0.0729.2005,0.237,0.2734,0.2734,0.1094.3464-.1094,0.0547-.2005-0.237-0.2917A0.2475,0.2475,0,0,0,7.638,60.6042Z" fill="#667f8e"/><path d="M4.94,57.9245q-0.0547.1276,0.1276,0.2188a0.1559,0.1559,0,0,0,.237-0.0365q0.0547-.1276-0.1276-0.2187A0.19,0.19,0,0,0,4.94,57.9245Z" fill="#667f8e"/><path d="M5.5417,58.38q-0.1276.0911,0.0365,0.2917Q5.76,58.8542,5.87,58.7266q0.1276-.0911-0.0365-0.2917Q5.651,58.2708,5.5417,58.38Z" fill="#667f8e"/><path d="M6.7448,59.9115q-0.1641.1458,0.0729,0.3464,0.2188,0.2187.3646,0.0547,0.1458-.1458-0.0729-0.3464Q6.8906,59.7474,6.7448,59.9115Z" fill="#667f8e"/><path d="M6.1068,59.0911q-0.1641.0911,0,.3281t0.31,0.1276a0.2218,0.2218,0,0,0,0-.3464Q6.2708,58.9635,6.1068,59.0911Z" fill="#667f8e"/><path d="M28,38H0V66H9.3333a4.8471,4.8471,0,0,0,.6016-0.0273,0.7045,0.7045,0,0,0,.401-0.237,0.85,0.85,0,0,0,.2005-0.6107q0-.0547-0.0091-1.24t-0.0091-1.8776l-0.4193.0729a5.3625,5.3625,0,0,1-1.0117.0638A7.7851,7.7851,0,0,1,7.82,62.0169,2.8367,2.8367,0,0,1,6.599,61.47a2.311,2.311,0,0,1-.8021-1.1211L5.6146,59.93A4.5589,4.5589,0,0,0,5.04,59a2.2007,2.2007,0,0,0-.793-0.6927L4.12,58.2161a1.3328,1.3328,0,0,1-.237-0.2187,1.0039,1.0039,0,0,1-.1641-0.2552,0.154,0.154,0,0,1,.0911-0.21,1.1826,1.1826,0,0,1,.5286-0.082l0.3646,0.0547a2.6611,2.6611,0,0,1,.9023.4375,2.9409,2.9409,0,0,1,.8841.9479A3.2139,3.2139,0,0,0,7.5013,60.03a2.1472,2.1472,0,0,0,1.194.3919,5.1587,5.1587,0,0,0,1.0391-.0911,3.6153,3.6153,0,0,0,.82-0.2734,2.9534,2.9534,0,0,1,.8932-1.8776,12.485,12.485,0,0,1-1.8685-.3281,7.446,7.446,0,0,1-1.7135-.7109,4.9106,4.9106,0,0,1-1.4674-1.2214,5.87,5.87,0,0,1-.957-1.9141,9.0994,9.0994,0,0,1-.3737-2.7344,5.3169,5.3169,0,0,1,1.44-3.7552,4.9019,4.9019,0,0,1,.1276-3.7187,2.5548,2.5548,0,0,1,1.5677.2461,10.9294,10.9294,0,0,1,1.5221.7018q0.4831,0.2917.7747,0.4922a13.16,13.16,0,0,1,7,0l0.6927-.4375a9.818,9.818,0,0,1,1.6771-.8021,2.388,2.388,0,0,1,1.4766-.2005,4.854,4.854,0,0,1,.1458,3.7188,5.3169,5.3169,0,0,1,1.44,3.7552,9.19,9.19,0,0,1-.3737,2.7435,5.6414,5.6414,0,0,1-.9661,1.9141,5.0953,5.0953,0,0,1-1.4766,1.2122,7.446,7.446,0,0,1-1.7135.7109,12.4851,12.4851,0,0,1-1.8685.3281,3.2468,3.2468,0,0,1,.9479,2.5885V65.125a1.1736,1.1736,0,0,0,.0911.5013,0.5006,0.5006,0,0,0,.2917.2643,1.6117,1.6117,0,0,0,.3555.0911A4.1055,4.1055,0,0,0,18.6667,66H28V38Z" fill="#667f8e"/><path d="M9.06,22.6589q-0.2917,0-.2917.2005,0,0.237.31,0.2005,0.2917,0,.2917-0.2005Q9.37,22.6224,9.06,22.6589Z" fill="#ccc"/><path d="M10.099,22.513q-0.2917.0547-.2552,0.2734t0.3281,0.1458q0.2917-.0729.2552-0.2552Q10.3906,22.4766,10.099,22.513Z" fill="#ccc"/><path d="M7.638,22.6042q-0.0729.2005,0.237,0.2734,0.2734,0.1094.3464-.1094,0.0547-.2005-0.237-0.2917A0.2475,0.2475,0,0,0,7.638,22.6042Z" fill="#ccc"/><path d="M4.94,19.9245q-0.0547.1276,0.1276,0.2188a0.1559,0.1559,0,0,0,.237-0.0365q0.0547-.1276-0.1276-0.2187A0.19,0.19,0,0,0,4.94,19.9245Z" fill="#ccc"/><path d="M5.5417,20.38q-0.1276.0911,0.0365,0.2917Q5.76,20.8542,5.87,20.7266q0.1276-.0911-0.0365-0.2917Q5.651,20.2708,5.5417,20.38Z" fill="#ccc"/><path d="M6.7448,21.9115q-0.1641.1458,0.0729,0.3464,0.2188,0.2187.3646,0.0547,0.1458-.1458-0.0729-0.3464Q6.8906,21.7474,6.7448,21.9115Z" fill="#ccc"/><path d="M6.1068,21.0911q-0.1641.0911,0,.3281t0.31,0.1276a0.2218,0.2218,0,0,0,0-.3464Q6.2708,20.9635,6.1068,21.0911Z" fill="#ccc"/><path d="M28,0H0V28H9.3333a4.8471,4.8471,0,0,0,.6016-0.0273,0.7045,0.7045,0,0,0,.401-0.237,0.85,0.85,0,0,0,.2005-0.6107q0-.0547-0.0091-1.24t-0.0091-1.8776l-0.4193.0729a5.3625,5.3625,0,0,1-1.0117.0638A7.7851,7.7851,0,0,1,7.82,24.0169,2.8367,2.8367,0,0,1,6.599,23.47a2.311,2.311,0,0,1-.8021-1.1211L5.6146,21.93A4.5589,4.5589,0,0,0,5.04,21a2.2007,2.2007,0,0,0-.793-0.6927L4.12,20.2161a1.3328,1.3328,0,0,1-.237-0.2187,1.0039,1.0039,0,0,1-.1641-0.2552,0.154,0.154,0,0,1,.0911-0.21,1.1826,1.1826,0,0,1,.5286-0.082l0.3646,0.0547a2.6611,2.6611,0,0,1,.9023.4375,2.9409,2.9409,0,0,1,.8841.9479A3.2139,3.2139,0,0,0,7.5013,22.03a2.1472,2.1472,0,0,0,1.194.3919,5.1587,5.1587,0,0,0,1.0391-.0911,3.6153,3.6153,0,0,0,.82-0.2734,2.9534,2.9534,0,0,1,.8932-1.8776,12.485,12.485,0,0,1-1.8685-.3281,7.446,7.446,0,0,1-1.7135-.7109,4.9106,4.9106,0,0,1-1.4674-1.2214,5.87,5.87,0,0,1-.957-1.9141,9.0994,9.0994,0,0,1-.3737-2.7344,5.3169,5.3169,0,0,1,1.44-3.7552,4.9019,4.9019,0,0,1,.1276-3.7187,2.5548,2.5548,0,0,1,1.5677.2461,10.9294,10.9294,0,0,1,1.5221.7018Q10.2083,7.0365,10.5,7.237a13.16,13.16,0,0,1,7,0l0.6927-.4375A9.818,9.818,0,0,1,19.87,5.9974a2.388,2.388,0,0,1,1.4766-.2005,4.854,4.854,0,0,1,.1458,3.7188,5.3169,5.3169,0,0,1,1.44,3.7552,9.19,9.19,0,0,1-.3737,2.7435,5.6414,5.6414,0,0,1-.9661,1.9141,5.0953,5.0953,0,0,1-1.4766,1.2122,7.446,7.446,0,0,1-1.7135.7109,12.4851,12.4851,0,0,1-1.8685.3281,3.2468,3.2468,0,0,1,.9479,2.5885V27.125a1.1736,1.1736,0,0,0,.0911.5013,0.5006,0.5006,0,0,0,.2917.2643,1.6117,1.6117,0,0,0,.3555.0911A4.1055,4.1055,0,0,0,18.6667,28H28V0Z" fill="#ccc"/></svg>