<svg id="hover" xmlns="http://www.w3.org/2000/svg" viewBox="0 0 28 66"><title>linkedin</title><path d="M0,38V66H28V38H0ZM9.9082,58.1682H6.6855V48.49H9.9082v9.678ZM9.62,46.6932a1.84,1.84,0,0,1-1.3232.4785h-0.02a1.7626,1.7626,0,0,1-1.2891-.4785A1.6007,1.6007,0,0,1,6.5,45.5018a1.5732,1.5732,0,0,1,.5029-1.1964,1.838,1.838,0,0,1,1.3135-.4736,1.7861,1.7861,0,0,1,1.2988.4736,1.6291,1.6291,0,0,1,.498,1.1964A1.5461,1.5461,0,0,1,9.62,46.6932ZM21.5,58.1682H18.2871V52.9922a2.8252,2.8252,0,0,0-.3955-1.6065,1.3891,1.3891,0,0,0-1.2354-.5811,1.5816,1.5816,0,0,0-1.03.3369,2.0771,2.0771,0,0,0-.62.835,2.3617,2.3617,0,0,0-.1074.7911v5.4005H11.6855q0.02-3.8966.02-6.3185t-0.01-2.8907l-0.01-.4688h3.2129v1.38a4.25,4.25,0,0,1,.3809-0.52,4.16,4.16,0,0,1,.5518-0.5078,2.5378,2.5378,0,0,1,.85-0.4249,3.8717,3.8717,0,0,1,1.1182-.1514,3.4685,3.4685,0,0,1,2.6855,1.1085A4.65,4.65,0,0,1,21.5,52.6212v5.547Z" fill="#0b7bb5"/><path d="M0,0V28H28V0H0ZM9.9082,20.1682H6.6855V10.49H9.9082v9.678ZM9.62,8.6932a1.84,1.84,0,0,1-1.3232.4785h-0.02a1.7626,1.7626,0,0,1-1.2891-.4785A1.6007,1.6007,0,0,1,6.5,7.5018a1.5732,1.5732,0,0,1,.5029-1.1964,1.838,1.838,0,0,1,1.3135-.4736,1.7861,1.7861,0,0,1,1.2988.4736,1.6291,1.6291,0,0,1,.498,1.1964A1.5461,1.5461,0,0,1,9.62,8.6932ZM21.5,20.1682H18.2871V14.9922a2.8252,2.8252,0,0,0-.3955-1.6065,1.3891,1.3891,0,0,0-1.2354-.5811,1.5816,1.5816,0,0,0-1.03.3369,2.0771,2.0771,0,0,0-.62.835,2.3617,2.3617,0,0,0-.1074.7911v5.4005H11.6855q0.02-3.8966.02-6.3185t-0.01-2.8907l-0.01-.4688h3.2129v1.38a4.25,4.25,0,0,1,.3809-0.52,4.16,4.16,0,0,1,.5518-0.5078,2.5378,2.5378,0,0,1,.85-0.4249,3.8717,3.8717,0,0,1,1.1182-.1514,3.4685,3.4685,0,0,1,2.6855,1.1085A4.65,4.65,0,0,1,21.5,14.6212v5.547Z" fill="#ccc"/></svg>