<svg xmlns="http://www.w3.org/2000/svg" width="504.67" height="504.502" viewBox="0 0 504.67 504.502" style="background-color:#FBDE34"><path fill="#343433" d="M123.367 421.893l38.646-23.393c7.458 13.222 14.238 24.408 30.51 24.408 15.594 0 25.425-6.102 25.425-29.832V231.71h47.46v162.043c0 49.156-28.815 71.53-70.852 71.53-37.967.002-60.002-19.66-71.19-43.39zM293.506 231.71h63.766c63.767 0 109.226 47.122 109.226 115.26s-45.154 115.263-109.226 115.263h-63.766V231.71zm61.63 188.825c46.07 0 67.122-30.51 67.122-73.563s-21.05-73.564-67.12-73.564H336.22v147.127h18.917z"/></svg>