<svg id="hover" xmlns="http://www.w3.org/2000/svg" viewBox="0 0 28 66"><title>so</title><path d="M0,38V66H28V38H0Zm13.8577,7.9191,5.8248,4.8666-0.9677,1.1669L12.89,47.0859Zm-2.2389,3.1591,6.8778,3.2159L17.861,53.67l-6.8777-3.2065Zm-1.3,3.4436,7.428,1.5653-0.313,1.48-7.428-1.5558ZM9.8448,55.9464h7.5893v1.5084H9.8448V55.9464ZM20.46,60.5H6.8187V54.4285H8.3365v4.5536h10.606V54.4285H20.46V60.5ZM19.9671,50.4916L15.442,44.4107,16.6563,43.5l4.5251,6.0809Z" fill="#fe7a15"/><path d="M0,0V28H28V0H0ZM13.8577,7.9191l5.8248,4.8666-0.9677,1.1669L12.89,9.0859Zm-2.2389,3.1591,6.8778,3.2159L17.861,15.67l-6.8777-3.2065Zm-1.3,3.4436,7.428,1.5653-0.313,1.48-7.428-1.5558ZM9.8448,17.9464h7.5893v1.5084H9.8448V17.9464ZM20.46,22.5H6.8187V16.4285H8.3365v4.5536h10.606V16.4285H20.46V22.5ZM19.9671,12.4916L15.442,6.4107,16.6563,5.5l4.5251,6.0809Z" fill="#ccc"/></svg>