<svg id="hover" xmlns="http://www.w3.org/2000/svg" viewBox="0 0 28 66"><title>twitter</title><path d="M0,38V66H28V38H0ZM21.1236,48.1246c0.0067,0.1577.01,0.4267,0.01,0.586A10.4881,10.4881,0,0,1,5.04,57.6014a7.524,7.524,0,0,0,.8771.0651A7.3732,7.3732,0,0,0,10.4837,56.1a3.6772,3.6772,0,0,1-3.4342-2.55,3.6565,3.6565,0,0,0,.6918.0673A4.6315,4.6315,0,0,0,8.8291,53.49,3.5749,3.5749,0,0,1,6,49.8864V49.84c0,0.2755.9432,0.4409,1.5457,0.46a3.7285,3.7285,0,0,1-1.695-3.06,3.6357,3.6357,0,0,1,.4678-1.8478A10.4044,10.4044,0,0,0,13.88,49.2331a3.67,3.67,0,0,1,6.25-3.3528,7.3454,7.3454,0,0,0,2.3334-.8918,3.6891,3.6891,0,0,1-1.6164,2.0336,7.3456,7.3456,0,0,0,2.11-.5787l0-.2219L22.9584,46h-0.001A5.491,5.491,0,0,1,21.1236,48.1246Z" fill="#55acee"/><path d="M0,0V28H28V0H0ZM21.1236,10.1246c0.0067,0.1577.01,0.4267,0.01,0.586A10.4881,10.4881,0,0,1,5.04,19.6014a7.524,7.524,0,0,0,.8771.0651A7.3732,7.3732,0,0,0,10.4837,18.1a3.6772,3.6772,0,0,1-3.4342-2.55,3.6565,3.6565,0,0,0,.6918.0673A4.6315,4.6315,0,0,0,8.8291,15.49,3.5749,3.5749,0,0,1,6,11.8864V11.84c0,0.2755.9432,0.4409,1.5457,0.46a3.7285,3.7285,0,0,1-1.695-3.06,3.6357,3.6357,0,0,1,.4678-1.8478A10.4044,10.4044,0,0,0,13.88,11.2331a3.67,3.67,0,0,1,6.25-3.3528,7.3454,7.3454,0,0,0,2.3334-.8918,3.6536,3.6536,0,0,1-1.5952,2.0336A12.5044,12.5044,0,0,0,23,8.4434V8H22.9574A5.491,5.491,0,0,1,21.1236,10.1246Z" fill="#ccc"/></svg>